{
  "accessors": [
    {
      "bufferView": 2,
      "componentType": 5126,
      "count": 47480,
      "max": [
        27.392446517944336,
        9.972536087036133,
        23.43572235107422
      ],
      "min": [
        -24.004972457885742,
        0.016935179010033607,
        -22.981050491333008
      ],
      "type": "VEC3"
    },
    {
      "bufferView": 2,
      "byteOffset": 569760,
      "componentType": 5126,
      "count": 47480,
      "max": [
        0.9999526739120483,
        0.9995078444480896,
        0.9999892115592957
      ],
      "min": [
        -0.9999319314956665,
        -0.00863263476639986,
        -0.9999721646308899
      ],
      "type": "VEC3"
    },
    {
      "bufferView": 3,
      "componentType": 5126,
      "count": 47480,
      "max": [
        0.9999902248382568,
        0.888238787651062,
        0.9999830722808838,
        1.0
      ],
      "min": [
        -0.9999969601631165,
        -0.9016698598861694,
        -1.0,
        -1.0
      ],
      "type": "VEC4"
    },
    {
      "bufferView": 1,
      "componentType": 5126,
      "count": 47480,
      "max": [
        0.9963135123252869,
        2.371553421020508
      ],
      "min": [
        0.007428616285324097,
        -1.4220389127731323
      ],
      "type": "VEC2"
    },
    {
      "bufferView": 1,
      "byteOffset": 379840,
      "componentType": 5126,
      "count": 47480,
      "max": [
        0.9963135123252869,
        2.371553421020508
      ],
      "min": [
        0.007428616285324097,
        -1.4220389127731323
      ],
      "type": "VEC2"
    },
    {
      "bufferView": 0,
      "componentType": 5125,
      "count": 133200,
      "type": "SCALAR"
    },
    {
      "bufferView": 2,
      "byteOffset": 1139520,
      "componentType": 5126,
      "count": 94,
      "max": [
        27.16020393371582,
        1.8781054019927979,
        27.160207748413086
      ],
      "min": [
        -27.161746978759766,
        -0.5115938782691956,
        -27.160207748413086
      ],
      "type": "VEC3"
    },
    {
      "bufferView": 2,
      "byteOffset": 1140648,
      "componentType": 5126,
      "count": 94,
      "max": [
        0.09120965003967285,
        1.0,
        0.08848719298839569
      ],
      "min": [
        -0.0929308757185936,
        0.9936574101448059,
        -0.09122120589017868
      ],
      "type": "VEC3"
    },
    {
      "bufferView": 1,
      "byteOffset": 759680,
      "componentType": 5126,
      "count": 94,
      "max": [
        4.988867282867432,
        4.988867282867432
      ],
      "min": [
        0.0,
        0.0
      ],
      "type": "VEC2"
    },
    {
      "bufferView": 0,
      "byteOffset": 532800,
      "componentType": 5125,
      "count": 432,
      "type": "SCALAR"
    },
    {
      "bufferView": 2,
      "byteOffset": 1141776,
      "componentType": 5126,
      "count": 439,
      "max": [
        70.63887023925781,
        70.63887023925781,
        70.63887023925781
      ],
      "min": [
        -70.63887023925781,
        -70.63887023925781,
        -70.63887023925781
      ],
      "type": "VEC3"
    },
    {
      "bufferView": 2,
      "byteOffset": 1147044,
      "componentType": 5126,
      "count": 439,
      "max": [
        1.0,
        1.0,
        1.0
      ],
      "min": [
        -1.0,
        -1.0,
        -1.0
      ],
      "type": "VEC3"
    },
    {
      "bufferView": 1,
      "byteOffset": 760432,
      "componentType": 5126,
      "count": 439,
      "max": [
        1.0,
        1.0
      ],
      "min": [
        0.0,
        0.0
      ],
      "type": "VEC2"
    },
    {
      "bufferView": 0,
      "byteOffset": 534528,
      "componentType": 5125,
      "count": 2280,
      "type": "SCALAR"
    }
  ],
  "asset": {
    "extras": {
      "author": "fangzhangmnm (https://sketchfab.com/fangzhangmnm)",
      "license": "CC-BY-4.0 (http://creativecommons.org/licenses/by/4.0/)",
      "source": "https://sketchfab.com/3d-models/pine-forest-ece69535f7584e099488f65f2072264e",
      "title": "Pine Forest"
    },
    "generator": "Sketchfab-12.66.0",
    "version": "2.0"
  },
  "bufferViews": [
    {
      "buffer": 0,
      "byteLength": 543648,
      "name": "floatBufferViews",
      "target": 34963
    },
    {
      "buffer": 0,
      "byteLength": 763944,
      "byteOffset": 543648,
      "byteStride": 8,
      "name": "floatBufferViews",
      "target": 34962
    },
    {
      "buffer": 0,
      "byteLength": 1152312,
      "byteOffset": 1307592,
      "byteStride": 12,
      "name": "floatBufferViews",
      "target": 34962
    },
    {
      "buffer": 0,
      "byteLength": 759680,
      "byteOffset": 2459904,
      "byteStride": 16,
      "name": "floatBufferViews",
      "target": 34962
    }
  ],
  "buffers": [
    {
      "byteLength": 3219584,
      "uri": "scene.bin"
    }
  ],
  "images": [
    {
      "uri": "textures/pine_baseColor.png"
    },
    {
      "uri": "textures/pine_normal.jpeg"
    },
    {
      "uri": "textures/mat1_baseColor.jpeg"
    },
    {
      "uri": "textures/mat2_baseColor.jpeg"
    }
  ],
  "materials": [
    {
      "alphaCutoff": 0.8683333425810843,
      "alphaMode": "MASK",
      "doubleSided": true,
      "name": "pine",
      "normalTexture": {
        "index": 1
      },
      "pbrMetallicRoughness": {
        "baseColorTexture": {
          "index": 0
        },
        "metallicFactor": 0.9107575850053267,
        "roughnessFactor": 0.9531818274295691
      }
    },
    {
      "name": "mat1",
      "pbrMetallicRoughness": {
        "baseColorTexture": {
          "index": 2
        }
      }
    },
    {
      "emissiveFactor": [
        1.0,
        1.0,
        1.0
      ],
      "emissiveTexture": {
        "index": 4
      },
      "name": "mat2",
      "pbrMetallicRoughness": {
        "baseColorFactor": [
          0.0,
          0.0,
          0.0,
          1.0
        ],
        "baseColorTexture": {
          "index": 3
        },
        "metallicFactor": 0.0,
        "roughnessFactor": 0.9
      }
    }
  ],
  "meshes": [
    {
      "name": "Object_0",
      "primitives": [
        {
          "attributes": {
            "NORMAL": 1,
            "POSITION": 0,
            "TANGENT": 2,
            "TEXCOORD_0": 3,
            "TEXCOORD_1": 4
          },
          "indices": 5,
          "material": 0,
          "mode": 4
        }
      ]
    },
    {
      "name": "Object_1",
      "primitives": [
        {
          "attributes": {
            "NORMAL": 7,
            "POSITION": 6,
            "TEXCOORD_0": 8
          },
          "indices": 9,
          "material": 1,
          "mode": 4
        }
      ]
    },
    {
      "name": "Object_2",
      "primitives": [
        {
          "attributes": {
            "NORMAL": 11,
            "POSITION": 10,
            "TEXCOORD_0": 12
          },
          "indices": 13,
          "material": 2,
          "mode": 4
        }
      ]
    }
  ],
  "nodes": [
    {
      "children": [
        1
      ],
      "matrix": [
        1.0,
        0.0,
        0.0,
        0.0,
        0.0,
        2.220446049250313e-16,
        -1.0,
        0.0,
        0.0,
        1.0,
        2.220446049250313e-16,
        0.0,
        0.0,
        0.0,
        0.0,
        1.0
      ],
      "name": "Sketchfab_model"
    },
    {
      "children": [
        2
      ],
      "name": "root"
    },
    {
      "children": [
        3,
        5,
        7
      ],
      "matrix": [
        1.0,
        0.0,
        0.0,
        0.0,
        0.0,
        2.220446049250313e-16,
        1.0,
        0.0,
        0.0,
        -1.0,
        2.220446049250313e-16,
        0.0,
        0.0,
        0.0,
        0.0,
        1.0
      ],
      "name": "GLTF_SceneRootNode"
    },
    {
      "children": [
        4
      ],
      "name": "pine1_0"
    },
    {
      "mesh": 0,
      "name": "Object_4"
    },
    {
      "children": [
        6
      ],
      "name": "obj1_1"
    },
    {
      "mesh": 1,
      "name": "Object_6"
    },
    {
      "children": [
        8
      ],
      "name": "obj2_2"
    },
    {
      "mesh": 2,
      "name": "Object_8"
    }
  ],
  "samplers": [
    {
      "magFilter": 9729,
      "minFilter": 9729,
      "wrapS": 10497,
      "wrapT": 10497
    },
    {
      "magFilter": 9729,
      "minFilter": 9987,
      "wrapS": 10497,
      "wrapT": 10497
    }
  ],
  "scene": 0,
  "scenes": [
    {
      "name": "Sketchfab_Scene",
      "nodes": [
        0
      ]
    }
  ],
  "textures": [
    {
      "sampler": 0,
      "source": 0
    },
    {
      "sampler": 0,
      "source": 1
    },
    {
      "sampler": 0,
      "source": 2
    },
    {
      "sampler": 0,
      "source": 3
    },
    {
      "sampler": 1,
      "source": 3
    }
  ]
}
